<svg width="672" height="436" viewBox="0 0 672 436" fill="none" xmlns="http://www.w3.org/2000/svg">
<path d="M522.932 206.375V283.557H565.503L565.462 286.903C564.834 312.231 556.731 339.349 525.109 339.349C487.741 339.349 473.719 303.314 473.719 224.771C473.719 142.641 485.681 101.012 518.945 101.012C548.047 101.012 558.623 124.615 564.81 181L661.943 155.854C652.63 16.6574 553.594 5 518.927 5C455.076 5 411.731 40.1072 385.865 88.5447V12.9594H275.298V62.207C260.747 32.2006 229.491 12.9594 174.72 12.9594H5V423.845H189.155C220.702 423.845 253.378 413.555 275.298 389.63V423.845H385.888V355.867C407.313 397.83 442.778 431 500.022 431C556.842 431 577.807 397.448 585.409 376.029H589.227L592.138 423.862H667.152V206.375H522.932ZM115.671 99.2454H145.297C152.061 99.2454 180.139 99.6034 180.139 134.869C180.139 170.135 157.585 174.966 143.918 174.966H115.671V99.2454ZM149.535 337.559H115.671V252.881H148.848C161.071 252.881 189.976 256.333 189.976 292.737C189.999 329.893 169.546 337.559 149.535 337.559ZM275.258 236.786C256.265 217.768 231.022 212.89 214.102 209.785V206.076C232.5 201.885 260.421 193.356 275.258 162.845V236.786Z" stroke="#1A171B" stroke-width="9.26087" stroke-miterlimit="10"/>
</svg>
